<svg width="23" height="22" viewBox="0 0 23 22" fill="none" xmlns="http://www.w3.org/2000/svg">
<g clip-path="url(#clip0)">
<path d="M21.6696 9.08737L12.696 9.08694C12.2997 9.08694 11.9785 9.40809 11.9785 9.80434V12.671C11.9785 13.0672 12.2997 13.3884 12.6959 13.3884H17.7493C17.196 14.8245 16.1632 16.0271 14.8455 16.7913L17.0002 20.5214C20.4567 18.5223 22.5002 15.0148 22.5002 11.0884C22.5002 10.5294 22.459 10.1297 22.3766 9.67969C22.314 9.33779 22.0171 9.08737 21.6696 9.08737Z" fill="#25CED1"/>
<path d="M11.4999 17.6956C9.02689 17.6956 6.86797 16.3444 5.70846 14.345L1.97852 16.4949C3.87666 19.7847 7.4325 22 11.4999 22C13.4953 22 15.378 21.4628 16.9999 20.5265V20.5214L14.8452 16.7913C13.8595 17.3629 12.719 17.6956 11.4999 17.6956Z" fill="#FF8A5B"/>
<path d="M17 20.5265V20.5214L14.8452 16.7913C13.8596 17.3629 12.7192 17.6957 11.5 17.6957V22C13.4953 22 15.3782 21.4628 17 20.5265Z" fill="#FF8A5B"/>
<path d="M4.80435 10.9999C4.80435 9.78097 5.13702 8.64053 5.70854 7.65496L1.9786 5.50506C1.0372 7.12184 0.5 8.99949 0.5 10.9999C0.5 13.0004 1.0372 14.878 1.9786 16.4948L5.70854 14.3449C5.13702 13.3594 4.80435 12.2189 4.80435 10.9999Z" fill="#FFD500"/>
<path d="M11.4999 4.30435C13.1126 4.30435 14.5939 4.87738 15.7509 5.83056C16.0363 6.06568 16.4512 6.04871 16.7127 5.78725L18.7438 3.75611C19.0405 3.45946 19.0193 2.97387 18.7024 2.69895C16.7639 1.0172 14.2416 0 11.4999 0C7.4325 0 3.87666 2.21534 1.97852 5.50511L5.70846 7.65501C6.86797 5.65555 9.0269 4.30435 11.4999 4.30435Z" fill="#FF4B26"/>
<path d="M15.751 5.83056C16.0364 6.06568 16.4513 6.04871 16.7128 5.78725L18.7439 3.75611C19.0405 3.45946 19.0194 2.97387 18.7025 2.69895C16.764 1.01716 14.2417 0 11.5 0V4.30435C13.1126 4.30435 14.594 4.87738 15.751 5.83056Z" fill="#D93F21"/>
</g>
<defs>
<clipPath id="clip0">
<rect width="22" height="22" fill="white" transform="translate(0.5)"/>
</clipPath>
</defs>
</svg>
