<svg width="30" height="30" viewBox="0 0 30 30" fill="none" xmlns="http://www.w3.org/2000/svg">
<path d="M20.0212 2.5H9.93375C7.96269 2.50232 6.07304 3.28643 4.67941 4.6803C3.28578 6.07416 2.50198 7.96394 2.5 9.935L2.5 20.0225C2.50232 21.9936 3.28643 23.8832 4.6803 25.2768C6.07416 26.6705 7.96394 27.4543 9.935 27.4562H20.0225C21.9936 27.4539 23.8832 26.6698 25.2768 25.276C26.6705 23.8821 27.4543 21.9923 27.4562 20.0212V9.93375C27.4539 7.96269 26.6698 6.07304 25.276 4.67941C23.8821 3.28578 21.9923 2.50198 20.0212 2.5V2.5ZM24.9463 20.0212C24.9463 20.668 24.8189 21.3084 24.5714 21.906C24.3239 22.5035 23.9611 23.0464 23.5038 23.5038C23.0464 23.9611 22.5035 24.3239 21.906 24.5714C21.3084 24.8189 20.668 24.9463 20.0212 24.9463H9.93375C8.62778 24.9459 7.3754 24.4269 6.45206 23.5033C5.52871 22.5797 5.01 21.3272 5.01 20.0212V9.93375C5.01033 8.62778 5.52936 7.3754 6.45294 6.45206C7.37652 5.52871 8.62903 5.01 9.935 5.01H20.0225C21.3285 5.01033 22.5808 5.52936 23.5042 6.45294C24.4275 7.37652 24.9463 8.62903 24.9463 9.935V20.0225V20.0212Z" fill="white"/>
<path d="M14.9774 8.52368C13.2667 8.52633 11.6268 9.20716 10.4173 10.4169C9.20773 11.6267 8.52722 13.2667 8.5249 14.9774C8.52689 16.6886 9.20743 18.3291 10.4173 19.5392C11.6271 20.7493 13.2675 21.4301 14.9787 21.4324C16.69 21.4304 18.3307 20.7497 19.5408 19.5396C20.751 18.3295 21.4317 16.6888 21.4337 14.9774C21.431 13.2663 20.7498 11.626 19.5395 10.4164C18.3292 9.20681 16.6886 8.52658 14.9774 8.52493V8.52368ZM14.9774 18.9224C13.9315 18.9224 12.9283 18.5069 12.1888 17.7673C11.4492 17.0277 11.0337 16.0246 11.0337 14.9787C11.0337 13.9327 11.4492 12.9296 12.1888 12.19C12.9283 11.4504 13.9315 11.0349 14.9774 11.0349C16.0234 11.0349 17.0265 11.4504 17.7661 12.19C18.5057 12.9296 18.9212 13.9327 18.9212 14.9787C18.9212 16.0246 18.5057 17.0277 17.7661 17.7673C17.0265 18.5069 16.0234 18.9224 14.9774 18.9224Z" fill="white"/>
<path d="M21.4452 10.1189C22.2992 10.1189 22.9914 9.42659 22.9914 8.57262C22.9914 7.71865 22.2992 7.02637 21.4452 7.02637C20.5912 7.02637 19.8989 7.71865 19.8989 8.57262C19.8989 9.42659 20.5912 10.1189 21.4452 10.1189Z" fill="white"/>
</svg>
